0
SECTION
2
HEADER
9
$ACADVER
1
AC1009
9
$INSUNITS
70
4
9
$MEASUREMENT
70
1
9
$LUNITS
70
2
9
$EXTMIN
10
-156.0000
20
-82.0000
30
0.0
9
$EXTMAX
10
165.0000
20
82.0000
30
0.0
0
ENDSEC
0
SECTION
2
TABLES
0
TABLE
2
LAYER
70
3
0
LAYER
2
CUT
70
0
62
7
6
CONTINUOUS
0
LAYER
2
REF_TEXT
70
0
62
3
6
CONTINUOUS
0
LAYER
2
REF_MARKS
70
0
62
1
6
CONTINUOUS
0
ENDTAB
0
ENDSEC
0
SECTION
2
ENTITIES
0
POLYLINE
8
CUT
66
1
70
1
10
0.0
20
0.0
30
0.0
0
VERTEX
8
CUT
10
-156.0000
20
-82.0000
30
0.0
0
VERTEX
8
CUT
10
165.0000
20
-82.0000
30
0.0
0
VERTEX
8
CUT
10
165.0000
20
82.0000
30
0.0
0
VERTEX
8
CUT
10
-156.0000
20
82.0000
30
0.0
0
SEQEND
8
CUT
0
CIRCLE
8
CUT
10
-88.0000
20
0.0000
30
0.0
40
5.0000
0
CIRCLE
8
CUT
10
-105.5000
20
0.0000
30
0.0
40
1.6000
0
CIRCLE
8
CUT
10
-70.5000
20
0.0000
30
0.0
40
1.6000
0
CIRCLE
8
CUT
10
-92.5000
20
50.0000
30
0.0
40
1.6000
0
CIRCLE
8
CUT
10
-83.5000
20
50.0000
30
0.0
40
1.6000
0
CIRCLE
8
CUT
10
-17.0000
20
0.0000
30
0.0
40
5.0000
0
CIRCLE
8
CUT
10
-34.5000
20
0.0000
30
0.0
40
1.6000
0
CIRCLE
8
CUT
10
0.5000
20
0.0000
30
0.0
40
1.6000
0
CIRCLE
8
CUT
10
-21.5000
20
23.7500
30
0.0
40
1.6000
0
CIRCLE
8
CUT
10
-12.5000
20
23.7500
30
0.0
40
1.6000
0
CIRCLE
8
CUT
10
27.0000
20
0.0000
30
0.0
40
5.0000
0
CIRCLE
8
CUT
10
9.5000
20
0.0000
30
0.0
40
1.6000
0
CIRCLE
8
CUT
10
44.5000
20
0.0000
30
0.0
40
1.6000
0
CIRCLE
8
CUT
10
22.5000
20
22.3500
30
0.0
40
1.6000
0
CIRCLE
8
CUT
10
31.5000
20
22.3500
30
0.0
40
1.6000
0
CIRCLE
8
CUT
10
71.0000
20
0.0000
30
0.0
40
5.0000
0
CIRCLE
8
CUT
10
53.5000
20
0.0000
30
0.0
40
1.6000
0
CIRCLE
8
CUT
10
88.5000
20
0.0000
30
0.0
40
1.6000
0
CIRCLE
8
CUT
10
66.5000
20
18.5000
30
0.0
40
1.6000
0
CIRCLE
8
CUT
10
75.5000
20
18.5000
30
0.0
40
1.6000
0
CIRCLE
8
CUT
10
115.0000
20
0.0000
30
0.0
40
5.0000
0
CIRCLE
8
CUT
10
97.5000
20
0.0000
30
0.0
40
1.6000
0
CIRCLE
8
CUT
10
132.5000
20
0.0000
30
0.0
40
1.6000
0
CIRCLE
8
CUT
10
110.5000
20
17.4500
30
0.0
40
1.6000
0
CIRCLE
8
CUT
10
119.5000
20
17.4500
30
0.0
40
1.6000
0
CIRCLE
8
CUT
10
-144.0000
20
76.0000
30
0.0
40
2.0000
0
CIRCLE
8
CUT
10
-144.0000
20
-76.0000
30
0.0
40
2.0000
0
CIRCLE
8
CUT
10
-69.7500
20
76.0000
30
0.0
40
2.0000
0
CIRCLE
8
CUT
10
-69.7500
20
-76.0000
30
0.0
40
2.0000
0
CIRCLE
8
CUT
10
4.5000
20
76.0000
30
0.0
40
2.0000
0
CIRCLE
8
CUT
10
4.5000
20
-76.0000
30
0.0
40
2.0000
0
CIRCLE
8
CUT
10
78.7500
20
76.0000
30
0.0
40
2.0000
0
CIRCLE
8
CUT
10
78.7500
20
-76.0000
30
0.0
40
2.0000
0
CIRCLE
8
CUT
10
153.0000
20
76.0000
30
0.0
40
2.0000
0
CIRCLE
8
CUT
10
153.0000
20
-76.0000
30
0.0
40
2.0000
0
TEXT
8
REF_TEXT
10
-82.0000
20
-17.0000
30
0.0
40
5.00
1
M2
0
TEXT
8
REF_TEXT
10
-82.0000
20
-24.0000
30
0.0
40
3.00
1
x = -88
0
TEXT
8
REF_TEXT
10
-82.0000
20
54.0000
30
0.0
40
3.00
1
M2 home sensor bkt
0
TEXT
8
REF_TEXT
10
-11.0000
20
-17.0000
30
0.0
40
5.00
1
S2
0
TEXT
8
REF_TEXT
10
-11.0000
20
-24.0000
30
0.0
40
3.00
1
x = -17
0
TEXT
8
REF_TEXT
10
-11.0000
20
27.7500
30
0.0
40
3.00
1
S2 home sensor bkt
0
TEXT
8
REF_TEXT
10
33.0000
20
-17.0000
30
0.0
40
5.00
1
N2
0
TEXT
8
REF_TEXT
10
33.0000
20
-24.0000
30
0.0
40
3.00
1
x = +27
0
TEXT
8
REF_TEXT
10
33.0000
20
26.3500
30
0.0
40
3.00
1
N2 home sensor bkt
0
TEXT
8
REF_TEXT
10
77.0000
20
-17.0000
30
0.0
40
5.00
1
K1
0
TEXT
8
REF_TEXT
10
77.0000
20
-24.0000
30
0.0
40
3.00
1
x = +71
0
TEXT
8
REF_TEXT
10
77.0000
20
22.5000
30
0.0
40
3.00
1
K1 home sensor bkt
0
TEXT
8
REF_TEXT
10
121.0000
20
-17.0000
30
0.0
40
5.00
1
O1
0
TEXT
8
REF_TEXT
10
121.0000
20
-24.0000
30
0.0
40
3.00
1
x = +115
0
TEXT
8
REF_TEXT
10
121.0000
20
21.4500
30
0.0
40
3.00
1
O1 home sensor bkt
0
TEXT
8
REF_TEXT
10
-150.0000
20
72.0000
30
0.0
40
5.00
1
M2 / LEFT END
0
TEXT
8
REF_TEXT
10
83.0000
20
72.0000
30
0.0
40
5.00
1
PEN + DRUM END ->
0
TEXT
8
REF_TEXT
10
-150.0000
20
-77.0000
30
0.0
40
3.00
1
FRONT FACE UP. 321 x 164 x 1.5
0
LINE
8
REF_MARKS
10
-97.0000
20
0.0000
30
0.0
11
-104.0000
21
0.0000
31
0.0
0
LINE
8
REF_MARKS
10
-79.0000
20
0.0000
30
0.0
11
-72.0000
21
0.0000
31
0.0
0
LINE
8
REF_MARKS
10
-88.0000
20
-9.0000
30
0.0
11
-88.0000
21
-16.0000
31
0.0
0
LINE
8
REF_MARKS
10
-88.0000
20
9.0000
30
0.0
11
-88.0000
21
16.0000
31
0.0
0
LINE
8
REF_MARKS
10
-108.3800
20
0.0000
30
0.0
11
-110.6200
21
0.0000
31
0.0
0
LINE
8
REF_MARKS
10
-102.6200
20
0.0000
30
0.0
11
-100.3800
21
0.0000
31
0.0
0
LINE
8
REF_MARKS
10
-105.5000
20
-2.8800
30
0.0
11
-105.5000
21
-5.1200
31
0.0
0
LINE
8
REF_MARKS
10
-105.5000
20
2.8800
30
0.0
11
-105.5000
21
5.1200
31
0.0
0
LINE
8
REF_MARKS
10
-73.3800
20
0.0000
30
0.0
11
-75.6200
21
0.0000
31
0.0
0
LINE
8
REF_MARKS
10
-67.6200
20
0.0000
30
0.0
11
-65.3800
21
0.0000
31
0.0
0
LINE
8
REF_MARKS
10
-70.5000
20
-2.8800
30
0.0
11
-70.5000
21
-5.1200
31
0.0
0
LINE
8
REF_MARKS
10
-70.5000
20
2.8800
30
0.0
11
-70.5000
21
5.1200
31
0.0
0
LINE
8
REF_MARKS
10
-95.3800
20
50.0000
30
0.0
11
-97.6200
21
50.0000
31
0.0
0
LINE
8
REF_MARKS
10
-89.6200
20
50.0000
30
0.0
11
-87.3800
21
50.0000
31
0.0
0
LINE
8
REF_MARKS
10
-92.5000
20
47.1200
30
0.0
11
-92.5000
21
44.8800
31
0.0
0
LINE
8
REF_MARKS
10
-92.5000
20
52.8800
30
0.0
11
-92.5000
21
55.1200
31
0.0
0
LINE
8
REF_MARKS
10
-86.3800
20
50.0000
30
0.0
11
-88.6200
21
50.0000
31
0.0
0
LINE
8
REF_MARKS
10
-80.6200
20
50.0000
30
0.0
11
-78.3800
21
50.0000
31
0.0
0
LINE
8
REF_MARKS
10
-83.5000
20
47.1200
30
0.0
11
-83.5000
21
44.8800
31
0.0
0
LINE
8
REF_MARKS
10
-83.5000
20
52.8800
30
0.0
11
-83.5000
21
55.1200
31
0.0
0
LINE
8
REF_MARKS
10
-26.0000
20
0.0000
30
0.0
11
-33.0000
21
0.0000
31
0.0
0
LINE
8
REF_MARKS
10
-8.0000
20
0.0000
30
0.0
11
-1.0000
21
0.0000
31
0.0
0
LINE
8
REF_MARKS
10
-17.0000
20
-9.0000
30
0.0
11
-17.0000
21
-16.0000
31
0.0
0
LINE
8
REF_MARKS
10
-17.0000
20
9.0000
30
0.0
11
-17.0000
21
16.0000
31
0.0
0
LINE
8
REF_MARKS
10
-37.3800
20
0.0000
30
0.0
11
-39.6200
21
0.0000
31
0.0
0
LINE
8
REF_MARKS
10
-31.6200
20
0.0000
30
0.0
11
-29.3800
21
0.0000
31
0.0
0
LINE
8
REF_MARKS
10
-34.5000
20
-2.8800
30
0.0
11
-34.5000
21
-5.1200
31
0.0
0
LINE
8
REF_MARKS
10
-34.5000
20
2.8800
30
0.0
11
-34.5000
21
5.1200
31
0.0
0
LINE
8
REF_MARKS
10
-2.3800
20
0.0000
30
0.0
11
-4.6200
21
0.0000
31
0.0
0
LINE
8
REF_MARKS
10
3.3800
20
0.0000
30
0.0
11
5.6200
21
0.0000
31
0.0
0
LINE
8
REF_MARKS
10
0.5000
20
-2.8800
30
0.0
11
0.5000
21
-5.1200
31
0.0
0
LINE
8
REF_MARKS
10
0.5000
20
2.8800
30
0.0
11
0.5000
21
5.1200
31
0.0
0
LINE
8
REF_MARKS
10
-24.3800
20
23.7500
30
0.0
11
-26.6200
21
23.7500
31
0.0
0
LINE
8
REF_MARKS
10
-18.6200
20
23.7500
30
0.0
11
-16.3800
21
23.7500
31
0.0
0
LINE
8
REF_MARKS
10
-21.5000
20
20.8700
30
0.0
11
-21.5000
21
18.6300
31
0.0
0
LINE
8
REF_MARKS
10
-21.5000
20
26.6300
30
0.0
11
-21.5000
21
28.8700
31
0.0
0
LINE
8
REF_MARKS
10
-15.3800
20
23.7500
30
0.0
11
-17.6200
21
23.7500
31
0.0
0
LINE
8
REF_MARKS
10
-9.6200
20
23.7500
30
0.0
11
-7.3800
21
23.7500
31
0.0
0
LINE
8
REF_MARKS
10
-12.5000
20
20.8700
30
0.0
11
-12.5000
21
18.6300
31
0.0
0
LINE
8
REF_MARKS
10
-12.5000
20
26.6300
30
0.0
11
-12.5000
21
28.8700
31
0.0
0
LINE
8
REF_MARKS
10
18.0000
20
0.0000
30
0.0
11
11.0000
21
0.0000
31
0.0
0
LINE
8
REF_MARKS
10
36.0000
20
0.0000
30
0.0
11
43.0000
21
0.0000
31
0.0
0
LINE
8
REF_MARKS
10
27.0000
20
-9.0000
30
0.0
11
27.0000
21
-16.0000
31
0.0
0
LINE
8
REF_MARKS
10
27.0000
20
9.0000
30
0.0
11
27.0000
21
16.0000
31
0.0
0
LINE
8
REF_MARKS
10
6.6200
20
0.0000
30
0.0
11
4.3800
21
0.0000
31
0.0
0
LINE
8
REF_MARKS
10
12.3800
20
0.0000
30
0.0
11
14.6200
21
0.0000
31
0.0
0
LINE
8
REF_MARKS
10
9.5000
20
-2.8800
30
0.0
11
9.5000
21
-5.1200
31
0.0
0
LINE
8
REF_MARKS
10
9.5000
20
2.8800
30
0.0
11
9.5000
21
5.1200
31
0.0
0
LINE
8
REF_MARKS
10
41.6200
20
0.0000
30
0.0
11
39.3800
21
0.0000
31
0.0
0
LINE
8
REF_MARKS
10
47.3800
20
0.0000
30
0.0
11
49.6200
21
0.0000
31
0.0
0
LINE
8
REF_MARKS
10
44.5000
20
-2.8800
30
0.0
11
44.5000
21
-5.1200
31
0.0
0
LINE
8
REF_MARKS
10
44.5000
20
2.8800
30
0.0
11
44.5000
21
5.1200
31
0.0
0
LINE
8
REF_MARKS
10
19.6200
20
22.3500
30
0.0
11
17.3800
21
22.3500
31
0.0
0
LINE
8
REF_MARKS
10
25.3800
20
22.3500
30
0.0
11
27.6200
21
22.3500
31
0.0
0
LINE
8
REF_MARKS
10
22.5000
20
19.4700
30
0.0
11
22.5000
21
17.2300
31
0.0
0
LINE
8
REF_MARKS
10
22.5000
20
25.2300
30
0.0
11
22.5000
21
27.4700
31
0.0
0
LINE
8
REF_MARKS
10
28.6200
20
22.3500
30
0.0
11
26.3800
21
22.3500
31
0.0
0
LINE
8
REF_MARKS
10
34.3800
20
22.3500
30
0.0
11
36.6200
21
22.3500
31
0.0
0
LINE
8
REF_MARKS
10
31.5000
20
19.4700
30
0.0
11
31.5000
21
17.2300
31
0.0
0
LINE
8
REF_MARKS
10
31.5000
20
25.2300
30
0.0
11
31.5000
21
27.4700
31
0.0
0
LINE
8
REF_MARKS
10
62.0000
20
0.0000
30
0.0
11
55.0000
21
0.0000
31
0.0
0
LINE
8
REF_MARKS
10
80.0000
20
0.0000
30
0.0
11
87.0000
21
0.0000
31
0.0
0
LINE
8
REF_MARKS
10
71.0000
20
-9.0000
30
0.0
11
71.0000
21
-16.0000
31
0.0
0
LINE
8
REF_MARKS
10
71.0000
20
9.0000
30
0.0
11
71.0000
21
16.0000
31
0.0
0
LINE
8
REF_MARKS
10
50.6200
20
0.0000
30
0.0
11
48.3800
21
0.0000
31
0.0
0
LINE
8
REF_MARKS
10
56.3800
20
0.0000
30
0.0
11
58.6200
21
0.0000
31
0.0
0
LINE
8
REF_MARKS
10
53.5000
20
-2.8800
30
0.0
11
53.5000
21
-5.1200
31
0.0
0
LINE
8
REF_MARKS
10
53.5000
20
2.8800
30
0.0
11
53.5000
21
5.1200
31
0.0
0
LINE
8
REF_MARKS
10
85.6200
20
0.0000
30
0.0
11
83.3800
21
0.0000
31
0.0
0
LINE
8
REF_MARKS
10
91.3800
20
0.0000
30
0.0
11
93.6200
21
0.0000
31
0.0
0
LINE
8
REF_MARKS
10
88.5000
20
-2.8800
30
0.0
11
88.5000
21
-5.1200
31
0.0
0
LINE
8
REF_MARKS
10
88.5000
20
2.8800
30
0.0
11
88.5000
21
5.1200
31
0.0
0
LINE
8
REF_MARKS
10
63.6200
20
18.5000
30
0.0
11
61.3800
21
18.5000
31
0.0
0
LINE
8
REF_MARKS
10
69.3800
20
18.5000
30
0.0
11
71.6200
21
18.5000
31
0.0
0
LINE
8
REF_MARKS
10
66.5000
20
15.6200
30
0.0
11
66.5000
21
13.3800
31
0.0
0
LINE
8
REF_MARKS
10
66.5000
20
21.3800
30
0.0
11
66.5000
21
23.6200
31
0.0
0
LINE
8
REF_MARKS
10
72.6200
20
18.5000
30
0.0
11
70.3800
21
18.5000
31
0.0
0
LINE
8
REF_MARKS
10
78.3800
20
18.5000
30
0.0
11
80.6200
21
18.5000
31
0.0
0
LINE
8
REF_MARKS
10
75.5000
20
15.6200
30
0.0
11
75.5000
21
13.3800
31
0.0
0
LINE
8
REF_MARKS
10
75.5000
20
21.3800
30
0.0
11
75.5000
21
23.6200
31
0.0
0
LINE
8
REF_MARKS
10
106.0000
20
0.0000
30
0.0
11
99.0000
21
0.0000
31
0.0
0
LINE
8
REF_MARKS
10
124.0000
20
0.0000
30
0.0
11
131.0000
21
0.0000
31
0.0
0
LINE
8
REF_MARKS
10
115.0000
20
-9.0000
30
0.0
11
115.0000
21
-16.0000
31
0.0
0
LINE
8
REF_MARKS
10
115.0000
20
9.0000
30
0.0
11
115.0000
21
16.0000
31
0.0
0
LINE
8
REF_MARKS
10
94.6200
20
0.0000
30
0.0
11
92.3800
21
0.0000
31
0.0
0
LINE
8
REF_MARKS
10
100.3800
20
0.0000
30
0.0
11
102.6200
21
0.0000
31
0.0
0
LINE
8
REF_MARKS
10
97.5000
20
-2.8800
30
0.0
11
97.5000
21
-5.1200
31
0.0
0
LINE
8
REF_MARKS
10
97.5000
20
2.8800
30
0.0
11
97.5000
21
5.1200
31
0.0
0
LINE
8
REF_MARKS
10
129.6200
20
0.0000
30
0.0
11
127.3800
21
0.0000
31
0.0
0
LINE
8
REF_MARKS
10
135.3800
20
0.0000
30
0.0
11
137.6200
21
0.0000
31
0.0
0
LINE
8
REF_MARKS
10
132.5000
20
-2.8800
30
0.0
11
132.5000
21
-5.1200
31
0.0
0
LINE
8
REF_MARKS
10
132.5000
20
2.8800
30
0.0
11
132.5000
21
5.1200
31
0.0
0
LINE
8
REF_MARKS
10
107.6200
20
17.4500
30
0.0
11
105.3800
21
17.4500
31
0.0
0
LINE
8
REF_MARKS
10
113.3800
20
17.4500
30
0.0
11
115.6200
21
17.4500
31
0.0
0
LINE
8
REF_MARKS
10
110.5000
20
14.5700
30
0.0
11
110.5000
21
12.3300
31
0.0
0
LINE
8
REF_MARKS
10
110.5000
20
20.3300
30
0.0
11
110.5000
21
22.5700
31
0.0
0
LINE
8
REF_MARKS
10
116.6200
20
17.4500
30
0.0
11
114.3800
21
17.4500
31
0.0
0
LINE
8
REF_MARKS
10
122.3800
20
17.4500
30
0.0
11
124.6200
21
17.4500
31
0.0
0
LINE
8
REF_MARKS
10
119.5000
20
14.5700
30
0.0
11
119.5000
21
12.3300
31
0.0
0
LINE
8
REF_MARKS
10
119.5000
20
20.3300
30
0.0
11
119.5000
21
22.5700
31
0.0
0
LINE
8
REF_MARKS
10
-147.6000
20
76.0000
30
0.0
11
-150.4000
21
76.0000
31
0.0
0
LINE
8
REF_MARKS
10
-140.4000
20
76.0000
30
0.0
11
-137.6000
21
76.0000
31
0.0
0
LINE
8
REF_MARKS
10
-144.0000
20
72.4000
30
0.0
11
-144.0000
21
69.6000
31
0.0
0
LINE
8
REF_MARKS
10
-144.0000
20
79.6000
30
0.0
11
-144.0000
21
82.4000
31
0.0
0
LINE
8
REF_MARKS
10
-147.6000
20
-76.0000
30
0.0
11
-150.4000
21
-76.0000
31
0.0
0
LINE
8
REF_MARKS
10
-140.4000
20
-76.0000
30
0.0
11
-137.6000
21
-76.0000
31
0.0
0
LINE
8
REF_MARKS
10
-144.0000
20
-79.6000
30
0.0
11
-144.0000
21
-82.4000
31
0.0
0
LINE
8
REF_MARKS
10
-144.0000
20
-72.4000
30
0.0
11
-144.0000
21
-69.6000
31
0.0
0
LINE
8
REF_MARKS
10
-73.3500
20
76.0000
30
0.0
11
-76.1500
21
76.0000
31
0.0
0
LINE
8
REF_MARKS
10
-66.1500
20
76.0000
30
0.0
11
-63.3500
21
76.0000
31
0.0
0
LINE
8
REF_MARKS
10
-69.7500
20
72.4000
30
0.0
11
-69.7500
21
69.6000
31
0.0
0
LINE
8
REF_MARKS
10
-69.7500
20
79.6000
30
0.0
11
-69.7500
21
82.4000
31
0.0
0
LINE
8
REF_MARKS
10
-73.3500
20
-76.0000
30
0.0
11
-76.1500
21
-76.0000
31
0.0
0
LINE
8
REF_MARKS
10
-66.1500
20
-76.0000
30
0.0
11
-63.3500
21
-76.0000
31
0.0
0
LINE
8
REF_MARKS
10
-69.7500
20
-79.6000
30
0.0
11
-69.7500
21
-82.4000
31
0.0
0
LINE
8
REF_MARKS
10
-69.7500
20
-72.4000
30
0.0
11
-69.7500
21
-69.6000
31
0.0
0
LINE
8
REF_MARKS
10
0.9000
20
76.0000
30
0.0
11
-1.9000
21
76.0000
31
0.0
0
LINE
8
REF_MARKS
10
8.1000
20
76.0000
30
0.0
11
10.9000
21
76.0000
31
0.0
0
LINE
8
REF_MARKS
10
4.5000
20
72.4000
30
0.0
11
4.5000
21
69.6000
31
0.0
0
LINE
8
REF_MARKS
10
4.5000
20
79.6000
30
0.0
11
4.5000
21
82.4000
31
0.0
0
LINE
8
REF_MARKS
10
0.9000
20
-76.0000
30
0.0
11
-1.9000
21
-76.0000
31
0.0
0
LINE
8
REF_MARKS
10
8.1000
20
-76.0000
30
0.0
11
10.9000
21
-76.0000
31
0.0
0
LINE
8
REF_MARKS
10
4.5000
20
-79.6000
30
0.0
11
4.5000
21
-82.4000
31
0.0
0
LINE
8
REF_MARKS
10
4.5000
20
-72.4000
30
0.0
11
4.5000
21
-69.6000
31
0.0
0
LINE
8
REF_MARKS
10
75.1500
20
76.0000
30
0.0
11
72.3500
21
76.0000
31
0.0
0
LINE
8
REF_MARKS
10
82.3500
20
76.0000
30
0.0
11
85.1500
21
76.0000
31
0.0
0
LINE
8
REF_MARKS
10
78.7500
20
72.4000
30
0.0
11
78.7500
21
69.6000
31
0.0
0
LINE
8
REF_MARKS
10
78.7500
20
79.6000
30
0.0
11
78.7500
21
82.4000
31
0.0
0
LINE
8
REF_MARKS
10
75.1500
20
-76.0000
30
0.0
11
72.3500
21
-76.0000
31
0.0
0
LINE
8
REF_MARKS
10
82.3500
20
-76.0000
30
0.0
11
85.1500
21
-76.0000
31
0.0
0
LINE
8
REF_MARKS
10
78.7500
20
-79.6000
30
0.0
11
78.7500
21
-82.4000
31
0.0
0
LINE
8
REF_MARKS
10
78.7500
20
-72.4000
30
0.0
11
78.7500
21
-69.6000
31
0.0
0
LINE
8
REF_MARKS
10
149.4000
20
76.0000
30
0.0
11
146.6000
21
76.0000
31
0.0
0
LINE
8
REF_MARKS
10
156.6000
20
76.0000
30
0.0
11
159.4000
21
76.0000
31
0.0
0
LINE
8
REF_MARKS
10
153.0000
20
72.4000
30
0.0
11
153.0000
21
69.6000
31
0.0
0
LINE
8
REF_MARKS
10
153.0000
20
79.6000
30
0.0
11
153.0000
21
82.4000
31
0.0
0
LINE
8
REF_MARKS
10
149.4000
20
-76.0000
30
0.0
11
146.6000
21
-76.0000
31
0.0
0
LINE
8
REF_MARKS
10
156.6000
20
-76.0000
30
0.0
11
159.4000
21
-76.0000
31
0.0
0
LINE
8
REF_MARKS
10
153.0000
20
-79.6000
30
0.0
11
153.0000
21
-82.4000
31
0.0
0
LINE
8
REF_MARKS
10
153.0000
20
-72.4000
30
0.0
11
153.0000
21
-69.6000
31
0.0
0
ENDSEC
0
EOF
