0
SECTION
2
HEADER
9
$ACADVER
1
AC1009
9
$INSUNITS
70
4
9
$MEASUREMENT
70
1
9
$LUNITS
70
2
9
$EXTMIN
10
-156.0000
20
-82.0000
30
0.0
9
$EXTMAX
10
165.0000
20
82.0000
30
0.0
0
ENDSEC
0
SECTION
2
TABLES
0
TABLE
2
LAYER
70
1
0
LAYER
2
CUT
70
0
62
7
6
CONTINUOUS
0
ENDTAB
0
ENDSEC
0
SECTION
2
ENTITIES
0
POLYLINE
8
CUT
66
1
70
1
10
0.0
20
0.0
30
0.0
0
VERTEX
8
CUT
10
-156.0000
20
-82.0000
30
0.0
0
VERTEX
8
CUT
10
165.0000
20
-82.0000
30
0.0
0
VERTEX
8
CUT
10
165.0000
20
82.0000
30
0.0
0
VERTEX
8
CUT
10
-156.0000
20
82.0000
30
0.0
0
SEQEND
8
CUT
0
CIRCLE
8
CUT
10
-88.0000
20
0.0000
30
0.0
40
5.0000
0
CIRCLE
8
CUT
10
-105.5000
20
0.0000
30
0.0
40
1.6000
0
CIRCLE
8
CUT
10
-70.5000
20
0.0000
30
0.0
40
1.6000
0
CIRCLE
8
CUT
10
-92.5000
20
50.0000
30
0.0
40
1.6000
0
CIRCLE
8
CUT
10
-83.5000
20
50.0000
30
0.0
40
1.6000
0
CIRCLE
8
CUT
10
-17.0000
20
0.0000
30
0.0
40
5.0000
0
CIRCLE
8
CUT
10
-34.5000
20
0.0000
30
0.0
40
1.6000
0
CIRCLE
8
CUT
10
0.5000
20
0.0000
30
0.0
40
1.6000
0
CIRCLE
8
CUT
10
-21.5000
20
23.7500
30
0.0
40
1.6000
0
CIRCLE
8
CUT
10
-12.5000
20
23.7500
30
0.0
40
1.6000
0
CIRCLE
8
CUT
10
27.0000
20
0.0000
30
0.0
40
5.0000
0
CIRCLE
8
CUT
10
9.5000
20
0.0000
30
0.0
40
1.6000
0
CIRCLE
8
CUT
10
44.5000
20
0.0000
30
0.0
40
1.6000
0
CIRCLE
8
CUT
10
22.5000
20
22.3500
30
0.0
40
1.6000
0
CIRCLE
8
CUT
10
31.5000
20
22.3500
30
0.0
40
1.6000
0
CIRCLE
8
CUT
10
71.0000
20
0.0000
30
0.0
40
5.0000
0
CIRCLE
8
CUT
10
53.5000
20
0.0000
30
0.0
40
1.6000
0
CIRCLE
8
CUT
10
88.5000
20
0.0000
30
0.0
40
1.6000
0
CIRCLE
8
CUT
10
66.5000
20
18.5000
30
0.0
40
1.6000
0
CIRCLE
8
CUT
10
75.5000
20
18.5000
30
0.0
40
1.6000
0
CIRCLE
8
CUT
10
115.0000
20
0.0000
30
0.0
40
5.0000
0
CIRCLE
8
CUT
10
97.5000
20
0.0000
30
0.0
40
1.6000
0
CIRCLE
8
CUT
10
132.5000
20
0.0000
30
0.0
40
1.6000
0
CIRCLE
8
CUT
10
110.5000
20
17.4500
30
0.0
40
1.6000
0
CIRCLE
8
CUT
10
119.5000
20
17.4500
30
0.0
40
1.6000
0
CIRCLE
8
CUT
10
-144.0000
20
76.0000
30
0.0
40
2.0000
0
CIRCLE
8
CUT
10
-144.0000
20
-76.0000
30
0.0
40
2.0000
0
CIRCLE
8
CUT
10
-69.7500
20
76.0000
30
0.0
40
2.0000
0
CIRCLE
8
CUT
10
-69.7500
20
-76.0000
30
0.0
40
2.0000
0
CIRCLE
8
CUT
10
4.5000
20
76.0000
30
0.0
40
2.0000
0
CIRCLE
8
CUT
10
4.5000
20
-76.0000
30
0.0
40
2.0000
0
CIRCLE
8
CUT
10
78.7500
20
76.0000
30
0.0
40
2.0000
0
CIRCLE
8
CUT
10
78.7500
20
-76.0000
30
0.0
40
2.0000
0
CIRCLE
8
CUT
10
153.0000
20
76.0000
30
0.0
40
2.0000
0
CIRCLE
8
CUT
10
153.0000
20
-76.0000
30
0.0
40
2.0000
0
ENDSEC
0
EOF
