0
SECTION
2
HEADER
9
$ACADVER
1
AC1009
9
$INSUNITS
70
4
9
$MEASUREMENT
70
1
9
$LUNITS
70
2
9
$EXTMIN
10
0.0000
20
-200.0000
30
0.0
9
$EXTMAX
10
470.0000
20
43.1000
30
0.0
0
ENDSEC
0
SECTION
2
TABLES
0
TABLE
2
LAYER
70
5
0
LAYER
2
TOP_INNER
70
0
62
5
6
CONTINUOUS
0
LAYER
2
BOT_INNER
70
0
62
3
6
CONTINUOUS
0
LAYER
2
REAR_FACE
70
0
62
4
6
CONTINUOUS
0
LAYER
2
POST
70
0
62
6
6
CONTINUOUS
0
LAYER
2
REF_TEXT
70
0
62
2
6
CONTINUOUS
0
ENDTAB
0
ENDSEC
0
SECTION
2
ENTITIES
0
POLYLINE
8
TOP_INNER
66
1
70
1
10
0.0
20
0.0
30
0.0
0
VERTEX
8
TOP_INNER
10
0.0000
20
0.0000
30
0.0
0
VERTEX
8
TOP_INNER
10
470.0000
20
0.0000
30
0.0
0
VERTEX
8
TOP_INNER
10
470.0000
20
38.1000
30
0.0
0
VERTEX
8
TOP_INNER
10
0.0000
20
38.1000
30
0.0
0
SEQEND
8
TOP_INNER
0
CIRCLE
8
TOP_INNER
10
23.0000
20
20.0000
30
0.0
40
2.6000
0
CIRCLE
8
TOP_INNER
10
121.0000
20
20.0000
30
0.0
40
2.6000
0
CIRCLE
8
TOP_INNER
10
165.0000
20
20.0000
30
0.0
40
2.6000
0
CIRCLE
8
TOP_INNER
10
209.0000
20
20.0000
30
0.0
40
2.6000
0
CIRCLE
8
TOP_INNER
10
253.0000
20
20.0000
30
0.0
40
2.6000
0
CIRCLE
8
TOP_INNER
10
297.0000
20
20.0000
30
0.0
40
2.6000
0
CIRCLE
8
TOP_INNER
10
341.0000
20
20.0000
30
0.0
40
2.6000
0
CIRCLE
8
TOP_INNER
10
66.0000
20
30.0000
30
0.0
40
1.0000
0
CIRCLE
8
TOP_INNER
10
78.0000
20
30.0000
30
0.0
40
1.0000
0
CIRCLE
8
TOP_INNER
10
137.0000
20
30.0000
30
0.0
40
1.0000
0
CIRCLE
8
TOP_INNER
10
149.0000
20
30.0000
30
0.0
40
1.0000
0
CIRCLE
8
TOP_INNER
10
181.0000
20
30.0000
30
0.0
40
1.0000
0
CIRCLE
8
TOP_INNER
10
193.0000
20
30.0000
30
0.0
40
1.0000
0
CIRCLE
8
TOP_INNER
10
225.0000
20
30.0000
30
0.0
40
1.0000
0
CIRCLE
8
TOP_INNER
10
237.0000
20
30.0000
30
0.0
40
1.0000
0
CIRCLE
8
TOP_INNER
10
269.0000
20
30.0000
30
0.0
40
1.0000
0
CIRCLE
8
TOP_INNER
10
281.0000
20
30.0000
30
0.0
40
1.0000
0
CIRCLE
8
TOP_INNER
10
313.0000
20
30.0000
30
0.0
40
1.0000
0
CIRCLE
8
TOP_INNER
10
325.0000
20
30.0000
30
0.0
40
1.0000
0
CIRCLE
8
TOP_INNER
10
409.5000
20
20.0000
30
0.0
40
3.5000
0
TEXT
8
REF_TEXT
10
0.0000
20
43.1000
30
0.0
40
4.00
1
TOP RAIL inner face -- machine x LEFT to RIGHT (-160 at u=0)
0
TEXT
8
REF_TEXT
10
0.0000
20
-7.0000
30
0.0
40
3.00
1
v is measured from the REAR EDGE, which is the band line at y = 0.0
0
POLYLINE
8
BOT_INNER
66
1
70
1
10
0.0
20
0.0
30
0.0
0
VERTEX
8
BOT_INNER
10
0.0000
20
-60.0000
30
0.0
0
VERTEX
8
BOT_INNER
10
470.0000
20
-60.0000
30
0.0
0
VERTEX
8
BOT_INNER
10
470.0000
20
-21.9000
30
0.0
0
VERTEX
8
BOT_INNER
10
0.0000
20
-21.9000
30
0.0
0
SEQEND
8
BOT_INNER
0
CIRCLE
8
BOT_INNER
10
447.0000
20
-40.0000
30
0.0
40
2.6000
0
CIRCLE
8
BOT_INNER
10
349.0000
20
-40.0000
30
0.0
40
2.6000
0
CIRCLE
8
BOT_INNER
10
305.0000
20
-40.0000
30
0.0
40
2.6000
0
CIRCLE
8
BOT_INNER
10
261.0000
20
-40.0000
30
0.0
40
2.6000
0
CIRCLE
8
BOT_INNER
10
217.0000
20
-40.0000
30
0.0
40
2.6000
0
CIRCLE
8
BOT_INNER
10
173.0000
20
-40.0000
30
0.0
40
2.6000
0
CIRCLE
8
BOT_INNER
10
129.0000
20
-40.0000
30
0.0
40
2.6000
0
CIRCLE
8
BOT_INNER
10
404.0000
20
-30.0000
30
0.0
40
1.0000
0
CIRCLE
8
BOT_INNER
10
392.0000
20
-30.0000
30
0.0
40
1.0000
0
CIRCLE
8
BOT_INNER
10
333.0000
20
-30.0000
30
0.0
40
1.0000
0
CIRCLE
8
BOT_INNER
10
321.0000
20
-30.0000
30
0.0
40
1.0000
0
CIRCLE
8
BOT_INNER
10
289.0000
20
-30.0000
30
0.0
40
1.0000
0
CIRCLE
8
BOT_INNER
10
277.0000
20
-30.0000
30
0.0
40
1.0000
0
CIRCLE
8
BOT_INNER
10
245.0000
20
-30.0000
30
0.0
40
1.0000
0
CIRCLE
8
BOT_INNER
10
233.0000
20
-30.0000
30
0.0
40
1.0000
0
CIRCLE
8
BOT_INNER
10
201.0000
20
-30.0000
30
0.0
40
1.0000
0
CIRCLE
8
BOT_INNER
10
189.0000
20
-30.0000
30
0.0
40
1.0000
0
CIRCLE
8
BOT_INNER
10
157.0000
20
-30.0000
30
0.0
40
1.0000
0
CIRCLE
8
BOT_INNER
10
145.0000
20
-30.0000
30
0.0
40
1.0000
0
CIRCLE
8
BOT_INNER
10
60.5000
20
-40.0000
30
0.0
40
3.5000
0
TEXT
8
REF_TEXT
10
0.0000
20
-16.9000
30
0.0
40
4.00
1
BOTTOM RAIL inner face -- machine x RIGHT to LEFT (+310 at u=0)
0
TEXT
8
REF_TEXT
10
0.0000
20
-67.0000
30
0.0
40
3.00
1
v is measured from the REAR EDGE, which is the band line at y = -60.0
0
POLYLINE
8
REAR_FACE
66
1
70
1
10
0.0
20
0.0
30
0.0
0
VERTEX
8
REAR_FACE
10
0.0000
20
-120.0000
30
0.0
0
VERTEX
8
REAR_FACE
10
470.0000
20
-120.0000
30
0.0
0
VERTEX
8
REAR_FACE
10
470.0000
20
-100.9500
30
0.0
0
VERTEX
8
REAR_FACE
10
0.0000
20
-100.9500
30
0.0
0
SEQEND
8
REAR_FACE
0
CIRCLE
8
REAR_FACE
10
16.0000
20
-114.0000
30
0.0
40
1.0000
0
CIRCLE
8
REAR_FACE
10
90.2500
20
-114.0000
30
0.0
40
1.0000
0
CIRCLE
8
REAR_FACE
10
164.5000
20
-114.0000
30
0.0
40
1.0000
0
CIRCLE
8
REAR_FACE
10
238.7500
20
-114.0000
30
0.0
40
1.0000
0
CIRCLE
8
REAR_FACE
10
313.0000
20
-114.0000
30
0.0
40
1.0000
0
TEXT
8
REF_TEXT
10
0.0000
20
-95.9500
30
0.0
40
4.00
1
EITHER RAIL rear face -- faceplate pilots, 6 mm in from the inner edge
0
TEXT
8
REF_TEXT
10
0.0000
20
-127.0000
30
0.0
40
3.00
1
v is measured from the REAR EDGE, which is the band line at y = -120.0
0
POLYLINE
8
POST
66
1
70
1
10
0.0
20
0.0
30
0.0
0
VERTEX
8
POST
10
0.0000
20
-180.0000
30
0.0
0
VERTEX
8
POST
10
140.0000
20
-180.0000
30
0.0
0
VERTEX
8
POST
10
140.0000
20
-141.9000
30
0.0
0
VERTEX
8
POST
10
0.0000
20
-141.9000
30
0.0
0
SEQEND
8
POST
0
TEXT
8
REF_TEXT
10
0.0000
20
-136.9000
30
0.0
40
4.00
1
END POST x2 -- 140 long, blank (joinery still open)
0
TEXT
8
REF_TEXT
10
0.0000
20
-200.0000
30
0.0
40
4.00
1
Rails are wood you cut: these bands are drilling references, not a cut file.
0
ENDSEC
0
EOF
