M48
; DRILL file KiCad 10.0.6 date 2026-09-27T01:28:17
; FORMAT={-:-/ absolute / metric / decimal}
; #@! TF.CreationDate,2026-09-27T01:28:17-04:00
; #@! TF.GenerationSoftware,Kicad,Pcbnew,10.0.6
; #@! TF.FileFunction,Plated,1,2,PTH
FMAT,2
METRIC
; #@! TA.AperFunction,Plated,PTH,ViaDrill
T1C0.300
; #@! TA.AperFunction,Plated,PTH,ComponentDrill
T2C0.800
; #@! TA.AperFunction,Plated,PTH,ComponentDrill
T3C0.900
; #@! TA.AperFunction,Plated,PTH,ComponentDrill
T4C0.950
; #@! TA.AperFunction,Plated,PTH,ComponentDrill
T5C1.000
; #@! TA.AperFunction,Plated,PTH,ComponentDrill
T6C1.010
; #@! TA.AperFunction,Plated,PTH,ComponentDrill
T7C1.100
; #@! TA.AperFunction,Plated,PTH,ComponentDrill
T8C1.600
%
G90
G05
T1
X43.048Y-49.144
X43.048Y-73.528
X43.048Y-79.624
X43.048Y-85.72
X43.048Y-91.816
X43.048Y-97.912
X43.048Y-104.008
X43.048Y-110.104
X49.144Y-55.24
X49.144Y-61.336
X49.144Y-104.008
X49.144Y-110.104
X55.24Y-97.912
X55.24Y-104.008
X55.24Y-110.104
X62.273Y-81.427
X62.49Y-75.669
X67.432Y-91.816
X68.915Y-100.834
X79.624Y-55.24
X79.624Y-61.336
X79.624Y-91.816
X79.624Y-97.912
X79.624Y-104.008
X79.624Y-116.2
X85.72Y-49.144
X85.72Y-55.24
X85.72Y-61.336
X85.72Y-104.008
X86.136Y-80.92
X91.816Y-55.24
X91.816Y-61.336
X91.816Y-67.432
X91.816Y-104.008
X95.88Y-110.104
X97.912Y-97.912
X102.23Y-96.896
X104.008Y-104.008
X104.094Y-93.316
X109.397Y-95.803
X110.104Y-104.008
X114.422Y-82.164
X115.966Y-72.019
X115.966Y-90.348
X116.2Y-97.912
X116.2Y-104.008
X122.296Y-55.24
X122.296Y-104.008
X122.296Y-110.104
X123.312Y-61.336
X128.392Y-49.144
X128.392Y-55.24
X128.392Y-79.624
X128.392Y-104.008
X128.392Y-110.104
X128.392Y-116.2
X134.488Y-55.24
X134.488Y-110.104
X134.488Y-116.2
X140.584Y-67.432
X140.584Y-79.624
X140.584Y-91.816
X140.584Y-110.104
X140.584Y-116.2
X146.68Y-67.432
X146.68Y-79.624
X146.68Y-110.104
X146.68Y-116.2
X147.95Y-86.482
X152.776Y-97.912
X152.776Y-104.008
X152.776Y-110.104
X152.776Y-116.2
X158.872Y-67.432
X158.872Y-97.912
X158.872Y-104.008
X158.872Y-110.104
X158.872Y-116.2
X164.968Y-55.24
X164.968Y-61.336
X164.968Y-67.432
X164.968Y-79.624
X164.968Y-91.816
X164.968Y-97.912
X164.968Y-110.104
X164.968Y-116.2
X171.064Y-43.048
X171.064Y-49.144
X171.064Y-55.24
X171.064Y-61.336
X171.064Y-67.432
X171.064Y-91.816
X171.064Y-97.912
X171.064Y-110.104
X171.064Y-116.2
X177.16Y-49.144
X177.16Y-55.24
X177.16Y-61.336
X177.16Y-67.432
X177.16Y-91.816
X177.16Y-97.912
X177.16Y-104.008
X177.16Y-110.104
T2
X53.462Y-66.67
X53.462Y-74.29
X55.494Y-53.97
X55.494Y-61.59
X56.002Y-66.67
X56.002Y-74.29
X58.034Y-53.97
X58.034Y-61.59
X58.542Y-66.67
X58.542Y-74.29
X60.574Y-53.97
X60.574Y-61.59
X61.082Y-66.67
X61.082Y-74.29
X63.114Y-53.97
X63.114Y-61.59
X63.622Y-66.67
X63.622Y-74.29
X65.654Y-53.97
X65.654Y-61.59
X66.162Y-66.67
X66.162Y-74.29
X68.194Y-53.97
X68.194Y-61.59
X68.702Y-66.67
X68.702Y-74.29
X70.734Y-53.97
X70.734Y-61.59
X71.242Y-66.67
X71.242Y-74.29
X73.274Y-53.97
X73.274Y-61.59
X73.782Y-66.67
X73.782Y-74.29
X73.782Y-77.6
X75.814Y-53.97
X75.814Y-61.59
X76.282Y-77.6
X76.322Y-66.67
X76.322Y-74.29
X78.862Y-66.67
X78.862Y-74.29
X80.64Y-86.99
X80.64Y-94.61
X81.402Y-66.67
X81.402Y-74.29
X83.18Y-86.99
X83.18Y-94.61
X83.942Y-66.67
X83.942Y-74.29
X84.45Y-109.0
X85.72Y-86.99
X85.72Y-94.61
X86.482Y-66.67
X86.482Y-74.29
X86.99Y-109.0
X88.26Y-86.99
X88.26Y-94.61
X89.53Y-109.0
X90.8Y-86.99
X90.8Y-94.61
X92.07Y-109.0
X93.34Y-86.99
X93.34Y-94.61
X94.61Y-109.0
X95.372Y-66.67
X95.372Y-74.29
X95.88Y-86.99
X95.88Y-94.61
X97.0Y-80.7
X97.15Y-109.0
X97.404Y-53.97
X97.404Y-61.59
X97.912Y-66.67
X97.912Y-74.29
X98.42Y-86.99
X98.42Y-94.61
X99.54Y-80.7
X99.69Y-109.0
X99.944Y-53.97
X99.944Y-61.59
X100.452Y-66.67
X100.452Y-74.29
X100.96Y-86.99
X100.96Y-94.61
X100.96Y-97.9
X102.23Y-109.0
X102.3Y-80.7
X102.484Y-53.97
X102.484Y-61.59
X102.992Y-66.67
X102.992Y-74.29
X103.46Y-97.9
X103.5Y-86.99
X103.5Y-94.61
X104.84Y-80.7
X105.024Y-53.97
X105.024Y-61.59
X105.532Y-66.67
X105.532Y-74.29
X106.04Y-86.99
X106.04Y-94.61
X107.564Y-53.97
X107.564Y-61.59
X107.6Y-80.7
X108.072Y-66.67
X108.072Y-74.29
X108.58Y-86.99
X108.58Y-94.61
X110.104Y-53.97
X110.104Y-61.59
X110.14Y-80.7
X110.612Y-66.67
X110.612Y-74.29
X111.12Y-86.99
X111.12Y-94.61
X112.644Y-53.97
X112.644Y-61.59
X112.9Y-80.7
X113.152Y-66.67
X113.152Y-74.29
X113.66Y-86.99
X113.66Y-94.61
X115.184Y-53.97
X115.184Y-61.59
X115.44Y-80.7
X115.692Y-66.67
X115.692Y-74.29
X115.692Y-77.6
X117.724Y-53.97
X117.724Y-61.59
X118.192Y-77.6
X118.2Y-80.7
X118.232Y-66.67
X118.232Y-74.29
X118.74Y-100.3
X120.01Y-86.99
X120.01Y-94.61
X120.74Y-80.7
X120.772Y-66.67
X120.772Y-74.29
X121.28Y-100.3
X122.55Y-86.99
X122.55Y-94.61
X123.312Y-66.67
X123.312Y-74.29
X123.82Y-100.3
X125.09Y-86.99
X125.09Y-94.61
X125.852Y-66.67
X125.852Y-74.29
X126.36Y-100.3
X127.63Y-86.99
X127.63Y-94.61
X128.392Y-66.67
X128.392Y-74.29
X128.9Y-100.3
X130.17Y-86.99
X130.17Y-94.61
X131.44Y-100.3
X132.71Y-86.99
X132.71Y-94.61
X133.98Y-100.3
X135.25Y-86.99
X135.25Y-94.61
X136.52Y-100.3
X137.79Y-86.99
X137.79Y-94.61
X139.0Y-103.5
X139.06Y-100.3
X139.568Y-53.97
X139.568Y-61.59
X140.33Y-86.99
X140.33Y-94.61
X141.54Y-103.5
X142.108Y-53.97
X142.108Y-61.59
X142.87Y-86.99
X142.87Y-94.61
X144.648Y-53.97
X144.648Y-61.59
X146.3Y-84.3
X146.3Y-86.8
X147.188Y-53.97
X147.188Y-61.59
X149.728Y-53.97
X149.728Y-61.59
X150.5Y-87.5
X150.5Y-93.0
X152.268Y-53.97
X152.268Y-61.59
X153.04Y-87.5
X153.04Y-93.0
X154.808Y-53.97
X154.808Y-61.59
X155.58Y-87.5
X156.0Y-93.0
X157.348Y-53.97
X157.348Y-61.59
X158.54Y-93.0
X159.888Y-53.97
X159.888Y-61.59
X160.0Y-87.5
X162.54Y-87.5
T3
X139.0Y-107.5
X141.54Y-107.5
T4
X50.15Y-44.6
X50.15Y-116.88
X52.65Y-44.6
X52.65Y-116.88
X55.15Y-44.6
X55.15Y-116.88
X57.65Y-44.6
X60.15Y-44.6
X62.05Y-116.88
X64.55Y-116.88
X67.05Y-116.88
X71.15Y-44.6
X73.65Y-44.6
X73.95Y-116.88
X76.15Y-44.6
X76.45Y-116.88
X78.65Y-44.6
X78.95Y-116.88
X81.15Y-44.6
X85.85Y-116.88
X88.35Y-116.88
X90.85Y-116.88
X92.15Y-44.6
X94.65Y-44.6
X97.15Y-44.6
X97.75Y-116.88
X99.65Y-44.6
X100.25Y-116.88
X102.15Y-44.6
X102.75Y-116.88
X109.65Y-116.88
X112.15Y-116.88
X113.15Y-44.6
X114.65Y-116.88
X115.65Y-44.6
X118.15Y-44.6
X120.65Y-44.6
X121.55Y-116.88
X123.15Y-44.6
X124.05Y-116.88
X126.55Y-116.88
X134.15Y-44.6
X136.65Y-44.6
X139.15Y-44.6
X141.65Y-44.6
X144.15Y-44.6
X155.15Y-44.6
X157.65Y-44.6
X160.15Y-44.6
X162.65Y-44.6
X165.15Y-44.6
X175.8Y-72.5
X175.8Y-75.0
X175.8Y-77.5
X175.8Y-80.0
X175.8Y-82.5
X175.8Y-85.0
X175.8Y-87.5
X175.8Y-90.0
T5
X42.54Y-51.43
X42.54Y-53.97
X42.54Y-56.51
X42.54Y-59.05
X42.54Y-61.59
X42.54Y-64.13
X51.43Y-84.45
X51.43Y-102.23
X53.97Y-84.45
X53.97Y-102.23
X56.51Y-84.45
X56.51Y-102.23
X59.05Y-84.45
X59.05Y-102.23
X61.59Y-84.45
X61.59Y-102.23
X64.13Y-84.45
X64.13Y-102.23
X66.67Y-84.45
X66.67Y-102.23
X69.21Y-84.45
X69.21Y-102.23
X71.75Y-84.45
X71.75Y-102.23
X146.0Y-102.5
X151.0Y-102.5
T6
X160.5Y-108.5
X161.7Y-103.4
T7
X49.9Y-67.34
X49.9Y-77.5
X150.0Y-81.0
X152.54Y-81.0
X155.08Y-81.0
X160.0Y-81.0
X170.16Y-81.0
T8
X166.3Y-106.0
X169.3Y-101.3
X172.3Y-106.0
M30
