M48
; DRILL file KiCad 10.0.6 date 2026-09-26T21:54:16
; FORMAT={-:-/ absolute / metric / decimal}
; #@! TF.CreationDate,2026-09-26T21:54:16-04:00
; #@! TF.GenerationSoftware,Kicad,Pcbnew,10.0.6
; #@! TF.FileFunction,Plated,1,2,PTH
FMAT,2
METRIC
; #@! TA.AperFunction,Plated,PTH,ViaDrill
T1C0.300
; #@! TA.AperFunction,Plated,PTH,ViaDrill
T2C0.400
; #@! TA.AperFunction,Plated,PTH,ComponentDrill
T3C0.800
; #@! TA.AperFunction,Plated,PTH,ComponentDrill
T4C0.900
; #@! TA.AperFunction,Plated,PTH,ComponentDrill
T5C0.950
; #@! TA.AperFunction,Plated,PTH,ComponentDrill
T6C1.000
; #@! TA.AperFunction,Plated,PTH,ComponentDrill
T7C1.010
; #@! TA.AperFunction,Plated,PTH,ComponentDrill
T8C1.100
; #@! TA.AperFunction,Plated,PTH,ComponentDrill
T9C1.600
%
G90
G05
T1
X43.048Y-49.144
X43.048Y-67.432
X43.048Y-73.528
X43.048Y-79.624
X43.048Y-85.72
X43.048Y-91.816
X43.048Y-97.912
X43.048Y-104.008
X43.048Y-110.104
X44.064Y-54.478
X46.858Y-65.146
X49.144Y-49.144
X49.144Y-55.24
X49.144Y-73.528
X49.144Y-85.72
X49.144Y-91.816
X49.144Y-97.912
X49.144Y-104.008
X49.144Y-110.104
X54.986Y-75.814
X55.24Y-85.72
X55.24Y-91.816
X55.24Y-97.912
X55.24Y-104.008
X55.24Y-110.104
X55.748Y-70.48
X57.018Y-113.66
X61.336Y-85.72
X61.336Y-91.816
X61.336Y-97.912
X61.336Y-104.008
X61.336Y-110.104
X63.368Y-85.212
X66.162Y-77.338
X67.432Y-43.048
X68.194Y-79.624
X68.448Y-92.832
X68.956Y-63.622
X68.956Y-69.21
X69.464Y-108.326
X69.972Y-68.194
X70.48Y-70.48
X70.988Y-113.914
X78.608Y-69.464
X78.608Y-73.02
X79.116Y-119.502
X79.37Y-68.194
X79.624Y-55.24
X79.624Y-61.336
X81.148Y-96.388
X81.148Y-105.532
X81.656Y-98.166
X82.926Y-69.464
X83.688Y-93.848
X83.688Y-95.88
X83.688Y-105.532
X84.704Y-99.944
X85.466Y-69.464
X85.466Y-77.084
X85.72Y-49.144
X85.72Y-55.24
X85.72Y-61.336
X86.228Y-93.34
X86.99Y-120.264
X87.244Y-109.342
X88.26Y-78.862
X89.276Y-78.1
X90.292Y-75.56
X91.562Y-112.644
X91.816Y-55.24
X92.578Y-73.274
X95.118Y-107.818
X96.642Y-78.1
X98.42Y-91.816
X98.674Y-112.644
X98.674Y-113.914
X99.436Y-90.8
X101.214Y-65.146
X102.484Y-115.184
X102.992Y-70.226
X103.246Y-119.502
X103.5Y-69.464
X103.754Y-65.146
X104.008Y-43.048
X104.008Y-77.084
X104.008Y-104.008
X104.008Y-112.644
X105.278Y-117.47
X106.04Y-112.898
X107.31Y-60.574
X108.834Y-120.264
X109.596Y-68.702
X110.104Y-97.912
X110.358Y-69.464
X111.374Y-69.464
X112.136Y-87.752
X112.136Y-90.8
X115.438Y-67.94
X115.946Y-111.12
X116.2Y-49.144
X116.2Y-91.816
X116.2Y-97.912
X116.2Y-104.008
X116.962Y-61.336
X117.978Y-111.882
X118.74Y-79.624
X122.296Y-49.144
X122.296Y-55.24
X122.296Y-91.816
X122.296Y-97.912
X122.296Y-110.104
X128.392Y-49.144
X128.392Y-55.24
X128.392Y-104.008
X128.392Y-110.104
X128.392Y-116.2
X129.662Y-69.464
X130.424Y-70.226
X131.186Y-80.64
X134.488Y-97.912
X134.488Y-104.008
X134.488Y-110.104
X134.488Y-116.2
X140.584Y-43.048
X140.584Y-73.528
X140.584Y-97.912
X140.584Y-116.2
X140.838Y-78.1
X140.838Y-80.386
X141.6Y-58.796
X146.68Y-97.912
X146.68Y-110.104
X146.68Y-116.2
X150.744Y-88.26
X152.776Y-73.528
X152.776Y-79.624
X152.776Y-85.72
X152.776Y-91.816
X152.776Y-97.912
X152.776Y-110.104
X152.776Y-116.2
X158.872Y-43.048
X158.872Y-49.144
X158.872Y-55.24
X158.872Y-61.336
X158.872Y-67.432
X158.872Y-97.912
X158.872Y-110.104
X158.872Y-116.2
X164.968Y-49.144
X164.968Y-55.24
X164.968Y-61.336
X164.968Y-67.432
X164.968Y-73.528
X164.968Y-79.624
X164.968Y-85.72
X164.968Y-91.816
X164.968Y-97.912
X164.968Y-104.008
X164.968Y-110.104
T2
X112.39Y-46.858
X124.074Y-71.75
X125.344Y-99.436
X135.504Y-75.052
T3
X53.97Y-66.67
X53.97Y-74.29
X54.732Y-53.97
X54.732Y-61.59
X56.51Y-66.67
X56.51Y-74.29
X57.272Y-53.97
X57.272Y-61.59
X59.05Y-66.67
X59.05Y-74.29
X59.812Y-53.97
X59.812Y-61.59
X61.59Y-66.67
X61.59Y-74.29
X62.352Y-53.97
X62.352Y-61.59
X64.13Y-66.67
X64.13Y-74.29
X64.892Y-53.97
X64.892Y-61.59
X66.67Y-66.67
X66.67Y-74.29
X67.432Y-53.97
X67.432Y-61.59
X69.21Y-66.67
X69.21Y-74.29
X69.972Y-53.97
X69.972Y-61.59
X71.75Y-66.67
X71.75Y-74.29
X72.512Y-53.97
X72.512Y-61.59
X74.29Y-77.6
X74.29Y-66.67
X74.29Y-74.29
X75.052Y-53.97
X75.052Y-61.59
X76.79Y-77.6
X76.83Y-66.67
X76.83Y-74.29
X79.37Y-66.67
X79.37Y-74.29
X81.91Y-66.67
X81.91Y-74.29
X84.45Y-66.67
X84.45Y-74.29
X86.99Y-66.67
X86.99Y-74.29
X91.308Y-66.67
X91.308Y-74.29
X93.34Y-53.97
X93.34Y-61.59
X93.848Y-66.67
X93.848Y-74.29
X95.88Y-53.97
X95.88Y-61.59
X96.388Y-66.67
X96.388Y-74.29
X97.0Y-80.7
X98.4Y-109.0
X98.42Y-53.97
X98.42Y-61.59
X98.928Y-66.67
X98.928Y-74.29
X99.54Y-80.7
X100.94Y-109.0
X100.96Y-53.97
X100.96Y-61.59
X101.468Y-66.67
X101.468Y-74.29
X102.3Y-80.7
X103.48Y-109.0
X103.5Y-53.97
X103.5Y-61.59
X104.008Y-66.67
X104.008Y-74.29
X104.84Y-80.7
X106.02Y-109.0
X106.04Y-53.97
X106.04Y-61.59
X106.548Y-66.67
X106.548Y-74.29
X107.6Y-80.7
X108.56Y-109.0
X108.58Y-53.97
X108.58Y-61.59
X109.088Y-66.67
X109.088Y-74.29
X110.14Y-80.7
X111.1Y-109.0
X111.12Y-53.97
X111.12Y-61.59
X111.628Y-66.67
X111.628Y-74.29
X111.63Y-77.6
X112.9Y-80.7
X113.64Y-109.0
X113.66Y-53.97
X113.66Y-61.59
X114.13Y-77.6
X114.168Y-66.67
X114.168Y-74.29
X114.5Y-89.0
X114.5Y-93.5
X115.44Y-80.7
X116.18Y-109.0
X116.708Y-66.67
X116.708Y-74.29
X117.04Y-89.0
X117.04Y-93.5
X119.248Y-66.67
X119.248Y-74.29
X119.9Y-89.0
X121.788Y-66.67
X121.788Y-74.29
X122.44Y-89.0
X124.328Y-66.67
X124.328Y-74.29
X124.98Y-89.0
X128.0Y-88.5
X130.54Y-88.5
X132.456Y-53.97
X132.456Y-61.59
X134.996Y-53.97
X134.996Y-61.59
X137.536Y-53.97
X137.536Y-61.59
X138.5Y-103.5
X140.076Y-53.97
X140.076Y-61.59
X141.04Y-103.5
X142.616Y-53.97
X142.616Y-61.59
X143.0Y-70.5
X143.0Y-73.04
X143.0Y-75.58
X143.0Y-78.12
X143.0Y-80.66
X143.0Y-83.2
X143.0Y-85.74
X143.0Y-88.28
X143.0Y-90.82
X145.156Y-53.97
X145.156Y-61.59
X147.696Y-53.97
X147.696Y-61.59
X148.0Y-69.0
X148.0Y-71.54
X148.0Y-74.08
X148.0Y-76.62
X148.0Y-79.16
X148.0Y-81.7
X148.0Y-84.24
X148.0Y-86.78
X148.0Y-89.32
X148.0Y-91.86
X150.236Y-53.97
X150.236Y-61.59
X152.776Y-53.97
X152.776Y-61.59
X155.62Y-69.0
X155.62Y-71.54
X155.62Y-74.08
X155.62Y-76.62
X155.62Y-79.16
X155.62Y-81.7
X155.62Y-84.24
X155.62Y-86.78
X155.62Y-89.32
X155.62Y-91.86
X157.5Y-63.3
X157.5Y-65.8
T4
X138.5Y-108.5
X141.04Y-108.5
T5
X50.15Y-44.6
X50.15Y-116.88
X52.65Y-44.6
X52.65Y-116.88
X55.15Y-44.6
X55.15Y-116.88
X57.65Y-44.6
X60.15Y-44.6
X62.05Y-116.88
X64.55Y-116.88
X67.05Y-116.88
X69.45Y-44.6
X71.95Y-44.6
X73.95Y-116.88
X74.45Y-44.6
X76.45Y-116.88
X76.95Y-44.6
X78.95Y-116.88
X79.45Y-44.6
X85.85Y-116.88
X88.35Y-116.88
X88.75Y-44.6
X90.85Y-116.88
X91.25Y-44.6
X93.75Y-44.6
X96.25Y-44.6
X97.75Y-116.88
X98.75Y-44.6
X100.25Y-116.88
X102.75Y-116.88
X108.05Y-44.6
X109.65Y-116.88
X110.55Y-44.6
X112.15Y-116.88
X113.05Y-44.6
X114.65Y-116.88
X115.55Y-44.6
X118.05Y-44.6
X121.55Y-116.88
X124.05Y-116.88
X126.55Y-116.88
X127.35Y-44.6
X129.85Y-44.6
X132.35Y-44.6
X134.85Y-44.6
X137.35Y-44.6
X146.65Y-44.6
X149.15Y-44.6
X151.65Y-44.6
X154.15Y-44.6
X156.65Y-44.6
X162.8Y-74.5
X162.8Y-77.0
X162.8Y-79.5
X162.8Y-82.0
X162.8Y-84.5
X162.8Y-87.0
X162.8Y-89.5
X162.8Y-92.0
T6
X42.54Y-51.43
X42.54Y-53.97
X42.54Y-56.51
X42.54Y-59.05
X42.54Y-61.59
X42.54Y-64.13
X44.318Y-81.402
X44.318Y-106.802
X46.858Y-81.402
X46.858Y-106.802
X49.398Y-81.402
X49.398Y-106.802
X51.938Y-81.402
X51.938Y-106.802
X54.478Y-81.402
X54.478Y-106.802
X57.018Y-81.402
X57.018Y-106.802
X59.558Y-81.402
X59.558Y-106.802
X62.098Y-81.402
X62.098Y-106.802
X64.638Y-81.402
X64.638Y-106.802
X67.178Y-81.402
X67.178Y-106.802
X69.718Y-81.402
X69.718Y-106.802
X72.258Y-81.402
X72.258Y-106.802
X74.798Y-81.402
X74.798Y-106.802
X77.338Y-81.402
X77.338Y-106.802
X79.878Y-81.402
X79.878Y-106.802
X82.418Y-81.402
X82.418Y-106.802
X84.958Y-81.402
X84.958Y-106.802
X87.498Y-81.402
X87.498Y-106.802
X90.038Y-81.402
X90.038Y-106.802
X128.0Y-100.0
X133.0Y-100.0
T7
X146.0Y-108.0
X147.2Y-102.9
T8
X50.4Y-67.34
X50.4Y-77.5
X120.0Y-82.5
X122.54Y-82.5
X125.08Y-82.5
X129.3Y-82.0
X139.46Y-82.0
T9
X153.3Y-106.0
X156.3Y-101.3
X159.3Y-106.0
M30
