%TF.GenerationSoftware,KiCad,Pcbnew,10.0.6*%
%TF.CreationDate,2026-09-26T21:54:16-04:00*%
%TF.ProjectId,tide_main,74696465-5f6d-4616-996e-2e6b69636164,rev?*%
%TF.SameCoordinates,Original*%
%TF.FileFunction,Soldermask,Top*%
%TF.FilePolarity,Negative*%
%FSLAX46Y46*%
G04 Gerber Fmt 4.6, Leading zero omitted, Abs format (unit mm)*
G04 Created by KiCad (PCBNEW 10.0.6) date 2026-09-26 21:54:16*
%MOMM*%
%LPD*%
G01*
G04 APERTURE LIST*
G04 Aperture macros list*
%AMRoundRect*
0 Rectangle with rounded corners*
0 $1 Rounding radius*
0 $2 $3 $4 $5 $6 $7 $8 $9 X,Y pos of 4 corners*
0 Add a 4 corners polygon primitive as box body*
4,1,4,$2,$3,$4,$5,$6,$7,$8,$9,$2,$3,0*
0 Add four circle primitives for the rounded corners*
1,1,$1+$1,$2,$3*
1,1,$1+$1,$4,$5*
1,1,$1+$1,$6,$7*
1,1,$1+$1,$8,$9*
0 Add four rect primitives between the rounded corners*
20,1,$1+$1,$2,$3,$4,$5,0*
20,1,$1+$1,$4,$5,$6,$7,0*
20,1,$1+$1,$6,$7,$8,$9,0*
20,1,$1+$1,$8,$9,$2,$3,0*%
G04 Aperture macros list end*
%ADD10C,3.200000*%
%ADD11C,1.600000*%
%ADD12R,1.800000X1.800000*%
%ADD13C,1.800000*%
%ADD14RoundRect,0.250000X-0.600000X-0.725000X0.600000X-0.725000X0.600000X0.725000X-0.600000X0.725000X0*%
%ADD15O,1.700000X1.950000*%
%ADD16R,1.500000X1.500000*%
%ADD17C,1.500000*%
%ADD18RoundRect,0.249999X-0.850001X-0.850001X0.850001X-0.850001X0.850001X0.850001X-0.850001X0.850001X0*%
%ADD19C,2.200000*%
%ADD20C,2.010000*%
%ADD21RoundRect,0.250000X0.550000X-0.550000X0.550000X0.550000X-0.550000X0.550000X-0.550000X-0.550000X0*%
%ADD22RoundRect,0.249999X0.850001X-0.850001X0.850001X0.850001X-0.850001X0.850001X-0.850001X-0.850001X0*%
%ADD23RoundRect,0.250000X0.725000X-0.600000X0.725000X0.600000X-0.725000X0.600000X-0.725000X-0.600000X0*%
%ADD24O,1.950000X1.700000*%
%ADD25R,1.700000X1.700000*%
%ADD26C,1.700000*%
%ADD27R,2.600000X2.600000*%
%ADD28C,2.600000*%
%ADD29RoundRect,0.250000X-0.550000X-0.550000X0.550000X-0.550000X0.550000X0.550000X-0.550000X0.550000X0*%
%ADD30R,1.600000X1.600000*%
%ADD31R,1.905000X2.000000*%
%ADD32O,1.905000X2.000000*%
%ADD33RoundRect,0.250000X-0.750000X-0.750000X0.750000X-0.750000X0.750000X0.750000X-0.750000X0.750000X0*%
%ADD34C,2.000000*%
G04 APERTURE END LIST*
D10*
%TO.C,H1*%
X43500000Y-43500000D03*
%TD*%
%TO.C,H2*%
X163500000Y-43500000D03*
%TD*%
D11*
%TO.C,R6*%
X114500000Y-89000000D03*
X117040000Y-89000000D03*
%TD*%
D12*
%TO.C,LED1*%
X138500000Y-108500000D03*
D13*
X141040000Y-108500000D03*
%TD*%
D14*
%TO.C,J24*%
X97750000Y-116880000D03*
D15*
X100250000Y-116880000D03*
X102750000Y-116880000D03*
%TD*%
D16*
%TO.C,Q2*%
X119900000Y-89000000D03*
D17*
X122440000Y-89000000D03*
X124980000Y-89000000D03*
%TD*%
D11*
%TO.C,C5*%
X157500000Y-65800000D03*
X157500000Y-63300000D03*
%TD*%
%TO.C,R3*%
X107600000Y-80700000D03*
X110140000Y-80700000D03*
%TD*%
D14*
%TO.C,J21*%
X62050000Y-116880000D03*
D15*
X64550000Y-116880000D03*
X67050000Y-116880000D03*
%TD*%
D18*
%TO.C,D2*%
X129300000Y-82000000D03*
D19*
X139460000Y-82000000D03*
%TD*%
D10*
%TO.C,H3*%
X43500000Y-117780000D03*
%TD*%
D20*
%TO.C,F1*%
X146000000Y-108000000D03*
X147200000Y-102900000D03*
%TD*%
D14*
%TO.C,J25*%
X109650000Y-116880000D03*
D15*
X112150000Y-116880000D03*
X114650000Y-116880000D03*
%TD*%
D21*
%TO.C,U5*%
X93340000Y-61590000D03*
D11*
X95880000Y-61590000D03*
X98420000Y-61590000D03*
X100960000Y-61590000D03*
X103500000Y-61590000D03*
X106040000Y-61590000D03*
X108580000Y-61590000D03*
X111120000Y-61590000D03*
X113660000Y-61590000D03*
X113660000Y-53970000D03*
X111120000Y-53970000D03*
X108580000Y-53970000D03*
X106040000Y-53970000D03*
X103500000Y-53970000D03*
X100960000Y-53970000D03*
X98420000Y-53970000D03*
X95880000Y-53970000D03*
X93340000Y-53970000D03*
%TD*%
%TO.C,R8*%
X138500000Y-103500000D03*
X141040000Y-103500000D03*
%TD*%
D22*
%TO.C,D1*%
X50400000Y-77500000D03*
D19*
X50400000Y-67340000D03*
%TD*%
D14*
%TO.C,J11*%
X69450000Y-44600000D03*
D15*
X71950000Y-44600000D03*
X74450000Y-44600000D03*
X76950000Y-44600000D03*
X79450000Y-44600000D03*
%TD*%
D23*
%TO.C,J5*%
X162800000Y-92000000D03*
D24*
X162800000Y-89500000D03*
X162800000Y-87000000D03*
X162800000Y-84500000D03*
X162800000Y-82000000D03*
X162800000Y-79500000D03*
X162800000Y-77000000D03*
X162800000Y-74500000D03*
%TD*%
D11*
%TO.C,R7*%
X114500000Y-93500000D03*
X117040000Y-93500000D03*
%TD*%
D14*
%TO.C,J20*%
X50150000Y-116880000D03*
D15*
X52650000Y-116880000D03*
X55150000Y-116880000D03*
%TD*%
D14*
%TO.C,J10*%
X50150000Y-44600000D03*
D15*
X52650000Y-44600000D03*
X55150000Y-44600000D03*
X57650000Y-44600000D03*
X60150000Y-44600000D03*
%TD*%
D11*
%TO.C,R1*%
X97000000Y-80700000D03*
X99540000Y-80700000D03*
%TD*%
D25*
%TO.C,J1*%
X90038000Y-106802000D03*
D26*
X87498000Y-106802000D03*
X84958000Y-106802000D03*
X82418000Y-106802000D03*
X79878000Y-106802000D03*
X77338000Y-106802000D03*
X74798000Y-106802000D03*
X72258000Y-106802000D03*
X69718000Y-106802000D03*
X67178000Y-106802000D03*
X64638000Y-106802000D03*
X62098000Y-106802000D03*
X59558000Y-106802000D03*
X57018000Y-106802000D03*
X54478000Y-106802000D03*
X51938000Y-106802000D03*
X49398000Y-106802000D03*
X46858000Y-106802000D03*
X44318000Y-106802000D03*
%TD*%
D11*
%TO.C,C7*%
X111630000Y-77600000D03*
X114130000Y-77600000D03*
%TD*%
D27*
%TO.C,J3*%
X153300000Y-106000000D03*
D28*
X159300000Y-106000000D03*
X156300000Y-101300000D03*
%TD*%
D29*
%TO.C,U7*%
X148000000Y-69000000D03*
D11*
X148000000Y-71540000D03*
X148000000Y-74080000D03*
X148000000Y-76620000D03*
X148000000Y-79160000D03*
X148000000Y-81700000D03*
X148000000Y-84240000D03*
X148000000Y-86780000D03*
X148000000Y-89320000D03*
X148000000Y-91860000D03*
X155620000Y-91860000D03*
X155620000Y-89320000D03*
X155620000Y-86780000D03*
X155620000Y-84240000D03*
X155620000Y-81700000D03*
X155620000Y-79160000D03*
X155620000Y-76620000D03*
X155620000Y-74080000D03*
X155620000Y-71540000D03*
X155620000Y-69000000D03*
%TD*%
D21*
%TO.C,U4*%
X132456000Y-61590000D03*
D11*
X134996000Y-61590000D03*
X137536000Y-61590000D03*
X140076000Y-61590000D03*
X142616000Y-61590000D03*
X145156000Y-61590000D03*
X147696000Y-61590000D03*
X150236000Y-61590000D03*
X152776000Y-61590000D03*
X152776000Y-53970000D03*
X150236000Y-53970000D03*
X147696000Y-53970000D03*
X145156000Y-53970000D03*
X142616000Y-53970000D03*
X140076000Y-53970000D03*
X137536000Y-53970000D03*
X134996000Y-53970000D03*
X132456000Y-53970000D03*
%TD*%
D14*
%TO.C,J15*%
X146650000Y-44600000D03*
D15*
X149150000Y-44600000D03*
X151650000Y-44600000D03*
X154150000Y-44600000D03*
X156650000Y-44600000D03*
%TD*%
D11*
%TO.C,C6*%
X74289999Y-77600000D03*
X76789999Y-77600000D03*
%TD*%
D14*
%TO.C,J23*%
X85850000Y-116880000D03*
D15*
X88350000Y-116880000D03*
X90850000Y-116880000D03*
%TD*%
D30*
%TO.C,RN1*%
X143000000Y-70500000D03*
D11*
X143000000Y-73040000D03*
X143000000Y-75580000D03*
X143000000Y-78120000D03*
X143000000Y-80660000D03*
X143000000Y-83200000D03*
X143000000Y-85740000D03*
X143000000Y-88280000D03*
X143000000Y-90820000D03*
%TD*%
%TO.C,R2*%
X102300000Y-80700000D03*
X104840000Y-80700000D03*
%TD*%
D14*
%TO.C,J12*%
X88750000Y-44600000D03*
D15*
X91250000Y-44600000D03*
X93750000Y-44600000D03*
X96250000Y-44600000D03*
X98750000Y-44600000D03*
%TD*%
D10*
%TO.C,H4*%
X163500000Y-117780000D03*
%TD*%
D11*
%TO.C,R4*%
X112900000Y-80700000D03*
X115440000Y-80700000D03*
%TD*%
D21*
%TO.C,U2*%
X91308000Y-74289999D03*
D11*
X93848000Y-74289999D03*
X96388000Y-74289999D03*
X98928000Y-74289999D03*
X101468000Y-74289999D03*
X104008000Y-74289999D03*
X106548000Y-74289999D03*
X109088000Y-74289999D03*
X111628000Y-74289999D03*
X114168000Y-74289999D03*
X116708000Y-74289999D03*
X119248000Y-74289999D03*
X121788000Y-74289999D03*
X124328000Y-74289999D03*
X124328000Y-66669999D03*
X121788000Y-66669999D03*
X119248000Y-66669999D03*
X116708000Y-66669999D03*
X114168000Y-66669999D03*
X111628000Y-66669999D03*
X109088000Y-66669999D03*
X106548000Y-66669999D03*
X104008000Y-66669999D03*
X101468000Y-66669999D03*
X98928000Y-66669999D03*
X96388000Y-66669999D03*
X93848000Y-66669999D03*
X91308000Y-66669999D03*
%TD*%
D21*
%TO.C,U6*%
X54732000Y-61590000D03*
D11*
X57272000Y-61590000D03*
X59812000Y-61590000D03*
X62352000Y-61590000D03*
X64892000Y-61590000D03*
X67432000Y-61590000D03*
X69972000Y-61590000D03*
X72512000Y-61590000D03*
X75052000Y-61590000D03*
X75052000Y-53970000D03*
X72512000Y-53970000D03*
X69972000Y-53970000D03*
X67432000Y-53970000D03*
X64892000Y-53970000D03*
X62352000Y-53970000D03*
X59812000Y-53970000D03*
X57272000Y-53970000D03*
X54732000Y-53970000D03*
%TD*%
D25*
%TO.C,J2*%
X90038000Y-81402000D03*
D26*
X87498000Y-81402000D03*
X84958000Y-81402000D03*
X82418000Y-81402000D03*
X79878000Y-81402000D03*
X77338000Y-81402000D03*
X74798000Y-81402000D03*
X72258000Y-81402000D03*
X69718000Y-81402000D03*
X67178000Y-81402000D03*
X64638000Y-81402000D03*
X62098000Y-81402000D03*
X59558000Y-81402000D03*
X57018000Y-81402000D03*
X54478000Y-81402000D03*
X51938000Y-81402000D03*
X49398000Y-81402000D03*
X46858000Y-81402000D03*
X44318000Y-81402000D03*
%TD*%
D14*
%TO.C,J26*%
X121550000Y-116880000D03*
D15*
X124050000Y-116880000D03*
X126550000Y-116880000D03*
%TD*%
D30*
%TO.C,RN2*%
X98400000Y-109000000D03*
D11*
X100940000Y-109000000D03*
X103480000Y-109000000D03*
X106020000Y-109000000D03*
X108560000Y-109000000D03*
X111100000Y-109000000D03*
X113640000Y-109000000D03*
X116180000Y-109000000D03*
%TD*%
D31*
%TO.C,Q1*%
X120000000Y-82500000D03*
D32*
X122540000Y-82500000D03*
X125080000Y-82500000D03*
%TD*%
D14*
%TO.C,J14*%
X127350000Y-44600000D03*
D15*
X129850000Y-44600000D03*
X132350000Y-44600000D03*
X134850000Y-44600000D03*
X137350000Y-44600000D03*
%TD*%
D14*
%TO.C,J13*%
X108050000Y-44600000D03*
D15*
X110550000Y-44600000D03*
X113050000Y-44600000D03*
X115550000Y-44600000D03*
X118050000Y-44600000D03*
%TD*%
D11*
%TO.C,R5*%
X128000000Y-88500000D03*
X130540000Y-88500000D03*
%TD*%
D25*
%TO.C,J4*%
X42540000Y-51430000D03*
D26*
X42540000Y-53970000D03*
X42540000Y-56510000D03*
X42540000Y-59050000D03*
X42540000Y-61590000D03*
X42540000Y-64130000D03*
%TD*%
D21*
%TO.C,U3*%
X53970000Y-74289999D03*
D11*
X56510000Y-74289999D03*
X59050000Y-74289999D03*
X61590000Y-74289999D03*
X64130000Y-74289999D03*
X66670000Y-74289999D03*
X69210000Y-74289999D03*
X71750000Y-74289999D03*
X74290000Y-74289999D03*
X76830000Y-74289999D03*
X79370000Y-74289999D03*
X81910000Y-74289999D03*
X84450000Y-74289999D03*
X86990000Y-74289999D03*
X86990000Y-66669999D03*
X84450000Y-66669999D03*
X81910000Y-66669999D03*
X79370000Y-66669999D03*
X76830000Y-66669999D03*
X74290000Y-66669999D03*
X71750000Y-66669999D03*
X69210000Y-66669999D03*
X66670000Y-66669999D03*
X64130000Y-66669999D03*
X61590000Y-66669999D03*
X59050000Y-66669999D03*
X56510000Y-66669999D03*
X53970000Y-66669999D03*
%TD*%
D14*
%TO.C,J22*%
X73950000Y-116880000D03*
D15*
X76450000Y-116880000D03*
X78950000Y-116880000D03*
%TD*%
D33*
%TO.C,C1*%
X128000000Y-100000000D03*
D34*
X133000000Y-100000000D03*
%TD*%
M02*
